<svg xmlns="http://www.w3.org/2000/svg" viewBox="0 0 1024 1024" width="1024" height="1024">
  <title>ThetaIDE</title>
  <desc>A theta drawn as a pair of square brackets around a flared crossbar, on an orange tile.</desc>
  <defs>
    <linearGradient id="tile" x1="0" y1="0" x2="1" y2="1">
      <stop offset="0" stop-color="#fd8c32"/>
      <stop offset="1" stop-color="#f26a14"/>
    </linearGradient>
    <linearGradient id="ink" x1="0" y1="0" x2="0" y2="1">
      <stop offset="0" stop-color="#201b18"/>
      <stop offset="1" stop-color="#000000"/>
    </linearGradient>
  </defs>
  <rect width="1024" height="1024" rx="190" fill="url(#tile)"/>
  <path fill="url(#ink)" d="M216 212H432V284H384A40 40 0 0 0 344 324V700A40 40 0 0 0 384 740H432V812H216Z M808 212H592V284H640A40 40 0 0 1 680 324V700A40 40 0 0 1 640 740H592V812H808Z M416 440C430 470 452 480 490 480H534C572 480 594 470 608 440V584C594 554 572 544 534 544H490C452 544 430 554 416 584Z"/>
</svg>
